:SAMPLES-PER-SECOND 30
:FULLY-SPECIFIED
:DEGREES
326
root  7.77804 36.9824 8.96722 -174.387 -33.5138 172.14
RightUpLeg  1.45655 -7.43929 -27.971
RightLeg  32.8452 -20.2352 -13.7709
RightFoot  1.26582 -3.31703 29.6798
RightToes  -5.8209e-011 0 -3.6325e-017
Spine  12.7574 9.62489 14.579
Spine1  11.3875 12.2409 -2.32851
HEad  -14.6249 -44.7186 -1.43236
LeftShoulder1  1.59673 -3.56997 -15.8033
LeftArm  7.44609 8.30649 -62.5431
LeftForeArm  3.54981 -65.1653 -25.3258
LeftHand  -3.14313 -2.94487 42.226
RightShoulder  1.93544 4.64982 17.1396
RightArm  27.453 11.0179 55.7158
RightForeArm  -38.2547 72.341 44.588
RightHand  -0.577732 -2.0955 -20.1634
LeftUpLeg  -23.8472 -12.9111 12.3762
LeftLeg  18.0135 -6.41627 -1.95745
LeftFoot  -1.64454 1.67562 -19.5021
LeftToes  -3.91115e-011 -2.2622e-010 9.51032e-012
327
root  8.93393 36.7495 9.15101 -172.502 -35.6855 171.086
RightUpLeg  1.40943 -9.7698 -28.0069
RightLeg  31.6094 -19.6708 -12.7958
RightFoot  -3.36873 -2.6454 36.5794
RightToes  -5.8209e-011 0 -3.6325e-017
Spine  14.0844 9.46221 19.6251
Spine1  8.85267 14.028 -7.10717
HEad  -17.4349 -47.3453 -0.643885
LeftShoulder1  1.68308 -4.1354 -15.2134
LeftArm  8.97625 15.2198 -54.8979
LeftForeArm  8.32485 -68.5542 -30.057
LeftHand  -3.11397 -2.94309 41.8367
RightShoulder  1.5542 3.89511 14.1118
RightArm  20.0397 20.1478 59.9567
RightForeArm  -32.8505 74.0799 51.2211
RightHand  -0.680171 -1.56171 -20.4679
LeftUpLeg  -26.193 -10.5208 11.9494
LeftLeg  17.1426 -1.49529 0.021858
LeftFoot  2.31744 2.24571 -18.7182
LeftToes  -3.91115e-011 -2.2622e-010 9.51032e-012
328
root  10.0654 36.2474 9.45325 -171.602 -37.9685 170.087
RightUpLeg  0.583721 -11.6817 -27.8421
RightLeg  34.035 -16.0086 -11.5431
RightFoot  -10.4637 -0.408783 39.9578
RightToes  -5.8209e-011 0 -3.6325e-017
Spine  15.6518 8.74331 22.9606
Spine1  7.01417 14.4597 -9.36408
HEad  -20.0477 -48.3084 -1.00118
LeftShoulder1  1.7908 -4.70487 -14.9735
LeftArm  11.629 21.0355 -47.2585
LeftForeArm  11.2566 -70.1013 -32.8777
LeftHand  -2.75476 -2.45822 39.4888
RightShoulder  1.05825 2.33059 10.9713
RightArm  6.8164 30.7238 65.9501
RightForeArm  -41.6546 73.0289 46.9812
RightHand  -1.12404 -0.136554 -24.3313
LeftUpLeg  -29.3527 -9.7624 11.642
LeftLeg  20.4643 3.59619 1.80892
LeftFoot  4.05982 2.4877 -18.4377
LeftToes  -3.91115e-011 -2.2622e-010 9.51032e-012
329
root  11.0448 35.6744 9.84139 -171.58 -39.6446 169.169
RightUpLeg  -0.7871 -13.0205 -28.16
RightLeg  38.2219 -12.5374 -10.649
RightFoot  -16.0031 1.60178 40.4767
RightToes  -5.8209e-011 0 -3.6325e-017
Spine  17.6984 7.99822 25.1235
Spine1  5.33435 14.3907 -9.47201
HEad  -20.6867 -48.1615 -2.72117
LeftShoulder1  1.87607 -4.92019 -15.4741
LeftArm  13.6858 25.9607 -41.9086
LeftForeArm  10.9166 -70.5807 -34.1115
LeftHand  -2.31658 -1.7582 36.7132
RightShoulder  0.678773 0.685444 8.86772
RightArm  -7.47812 40.89 70.4605
RightForeArm  -51.7391 70.7578 39.6904
RightHand  -1.99028 2.15679 -30.2002
LeftUpLeg  -32.2428 -10.3324 11.3163
LeftLeg  26.2528 4.52524 2.71914
LeftFoot  3.46397 2.47065 -19.0338
LeftToes  -3.91115e-011 -2.2622e-010 9.51032e-012
330
root  11.794 35.2052 10.2359 -171.868 -40.4317 168.538
RightUpLeg  -2.6699 -14.2838 -28.8661
RightLeg  42.4765 -10.0763 -10.0258
RightFoot  -18.6547 2.58827 40.8008
RightToes  -5.8209e-011 0 -3.6325e-017
Spine  19.4706 7.38331 26.7538
Spine1  4.13547 14.2441 -8.75013
HEad  -20.5748 -47.0005 -4.12273
LeftShoulder1  1.95582 -5.00693 -16.25
LeftArm  13.2469 30.8098 -40.1588
LeftForeArm  11.9916 -71.3552 -35.9888
LeftHand  -2.07155 -1.38321 34.7965
RightShoulder  0.458041 -0.521398 7.91798
RightArm  -16.9971 48.2018 70.9656
RightForeArm  -53.3801 69.1617 35.9621
RightHand  -2.61307 3.50197 -33.5351
LeftUpLeg  -34.4122 -10.9901 11.0942
LeftLeg  32.0501 2.6583 2.14098
LeftFoot  1.91371 2.29795 -19.7084
LeftToes  -3.91115e-011 -2.2622e-010 9.51032e-012
331
root  12.311 34.9376 10.526 -172.06 -40.2297 168.048
RightUpLeg  -4.5822 -14.6094 -29.3447
RightLeg  45.5763 -8.53092 -9.52957
RightFoot  -19.7061 3.0163 41.3277
RightToes  -5.8209e-011 0 -3.6325e-017
Spine  20.0469 6.88123 27.3161
Spine1  4.36311 13.8036 -7.75689
HEad  -20.8781 -44.9464 -4.30471
LeftShoulder1  1.96701 -4.89984 -16.7136
LeftArm  10.7188 35.0834 -41.6721
LeftForeArm  17.2759 -72.8493 -39.6144
LeftHand  -2.06042 -1.54161 33.8623
RightShoulder  0.325743 -1.31747 7.4056
RightArm  -17.567 51.1815 68.8841
RightForeArm  -51.9303 68.7217 35.0637
RightHand  -2.46752 3.04239 -33.2956
LeftUpLeg  -35.2786 -10.5463 10.707
LeftLeg  35.778 1.71083 1.69997
LeftFoot  1.04155 2.22081 -20.3371
LeftToes  -3.91115e-011 -2.2622e-010 9.51032e-012
332
root  12.6522 34.8848 10.6584 -171.966 -39.4893 167.413
RightUpLeg  -5.88812 -13.1751 -29.2301
RightLeg  46.982 -8.44908 -9.89888
RightFoot  -20.3218 3.26308 41.5294
RightToes  -5.8209e-011 0 -3.6325e-017
Spine  19.2557 6.28066 26.497
Spine1  5.98035 12.7267 -6.55323
HEad  -20.8165 -42.7439 -4.28305
LeftShoulder1  1.85559 -4.35958 -16.9201
LeftArm  9.02051 36.4421 -44.1408
LeftForeArm  23.3047 -74.1731 -43.3997
LeftHand  -2.04595 -1.74722 32.7109
RightShoulder  0.261361 -1.72231 7.19378
RightArm  -10.3225 49.0879 67.9198
RightForeArm  -46.5717 70.7347 39.8694
RightHand  -2.24745 2.58233 -32.1681
LeftUpLeg  -34.8969 -9.20102 10.092
LeftLeg  36.6271 2.18547 2.10632
LeftFoot  1.56862 2.38798 -20.9807
LeftToes  -3.91115e-011 -2.2622e-010 9.51032e-012
333
root  12.8302 35.0155 10.6674 -171.691 -38.976 166.861
RightUpLeg  -6.25981 -10.9654 -28.6786
RightLeg  46.7881 -9.86971 -11.3648
RightFoot  -20.1437 3.19978 41.5665
RightToes  -5.8209e-011 0 -3.6325e-017
Spine  17.5857 5.46394 25.0752
Spine1  7.86613 11.0938 -5.32261
HEad  -19.6992 -41.1107 -5.09867
LeftShoulder1  1.70735 -3.66944 -17.1368
LeftArm  9.88061 33.7487 -45.4651
LeftForeArm  27.3486 -74.8824 -45.7118
LeftHand  -1.90293 -1.70565 30.709
RightShoulder  0.311194 -1.49665 8.0532
RightArm  -1.13561 42.813 68.7942
RightForeArm  -32.4405 74.2676 52.2781
RightHand  -2.18103 2.58395 -31.2578
LeftUpLeg  -34.1045 -7.90787 9.57628
LeftLeg  35.4697 1.97657 1.8813
LeftFoot  3.05111 2.60831 -20.6229
LeftToes  -3.91115e-011 -2.2622e-010 9.51032e-012
334
root  12.837 35.2786 10.6259 -171.479 -38.7846 166.766
RightUpLeg  -5.95629 -9.66524 -28.1299
RightLeg  45.4953 -11.5441 -12.6004
RightFoot  -18.7795 2.69473 41.6258
RightToes  -5.8209e-011 0 -3.6325e-017
Spine  15.8259 4.67043 23.5067
Spine1  9.21902 9.30966 -3.87326
HEad  -18.6005 -39.7174 -6.22036
LeftShoulder1  1.63605 -3.33868 -17.2526
LeftArm  11.3935 28.6752 -46.3078
LeftForeArm  32.6731 -75.6725 -48.5353
LeftHand  -1.77292 -1.74143 28.5887
RightShoulder  0.4865 -0.696472 10.0869
RightArm  5.35821 34.5386 68.64
RightForeArm  -12.5348 76.4645 67.1645
RightHand  -1.84401 1.87959 -29.0093
LeftUpLeg  -33.4505 -7.13808 9.44502
LeftLeg  33.7368 0.618251 0.801805
LeftFoot  4.69039 2.70475 -19.255
LeftToes  -3.91115e-011 -2.2622e-010 9.51032e-012
335
root  12.6839 35.6296 10.5836 -171.6 -38.1655 167.303
RightUpLeg  -5.42613 -9.53436 -27.7781
RightLeg  43.2484 -12.1522 -12.2645
RightFoot  -16.8742 1.9708 41.3934
RightToes  -5.8209e-011 0 -3.6325e-017
Spine  14.6154 4.12662 21.5827
Spine1  10.0641 7.70065 -1.97651
HEad  -18.6906 -37.7325 -6.38238
LeftShoulder1  1.61175 -3.28007 -17.0881
LeftArm  11.3086 23.7555 -47.9793
LeftForeArm  41.187 -76.8969 -54.3773
LeftHand  -1.75418 -1.99409 27.3648
RightShoulder  0.703334 0.1359 12.3484
RightArm  9.93361 25.9599 66.8024
RightForeArm  5.86968 77.2988 78.8975
RightHand  -1.29654 0.544406 -25.1364
LeftUpLeg  -32.6054 -6.48781 9.74224
LeftLeg  31.7902 -0.275338 0.160584
LeftFoot  6.08074 2.76726 -18.1674
LeftToes  -3.91115e-011 -2.2622e-010 9.51032e-012
336
root  12.3755 36.0508 10.5427 -172.136 -36.4594 168.553
RightUpLeg  -4.91381 -9.38248 -27.2778
RightLeg  39.8381 -11.9769 -10.7816
RightFoot  -14.8504 1.19069 40.5054
RightToes  -5.8209e-011 0 -3.6325e-017
Spine  13.9931 3.74932 19.6258
Spine1  10.6516 6.46396 -0.331255
HEad  -19.3168 -35.0328 -5.39357
LeftShoulder1  1.53809 -3.04244 -16.8011
LeftArm  10.2955 19.9582 -49.9884
LeftForeArm  49.927 -78.0695 -63.8106
LeftHand  -1.75392 -1.96383 27.4721
RightShoulder  0.861359 0.632876 13.9999
RightArm  14.1002 17.6115 64.8864
RightForeArm  21.7446 77.5931 88.6969
RightHand  -0.948018 -0.306507 -21.6134
LeftUpLeg  -31.0588 -5.63325 10.5295
LeftLeg  28.9271 -0.386514 0.112713
LeftFoot  7.03329 2.87304 -17.9027
LeftToes  -3.91115e-011 -2.2622e-010 9.51032e-012
337
root  11.9003 36.4984 10.4861 -172.627 -33.6843 170.186
RightUpLeg  -4.69812 -8.55609 -26.5808
RightLeg  35.569 -12.1254 -9.41077
RightFoot  -12.2675 0.244208 38.9839
RightToes  -5.8209e-011 0 -3.6325e-017
Spine  13.3883 3.43477 18.0882
Spine1  11.1693 5.65916 0.309025
HEad  -19.3186 -32.1053 -4.09082
LeftShoulder1  1.42252 -2.59156 -16.6281
LeftArm  9.97329 16.934 -51.2492
LeftForeArm  56.0378 -78.6733 -74.3145
LeftHand  -1.68642 -1.3887 28.6019
RightShoulder  0.961005 0.932745 14.9104
RightArm  17.3836 9.62379 63.9833
RightForeArm  36.337 77.6221 96.8209
RightHand  -0.895589 -0.131593 -19.7429
LeftUpLeg  -29.0186 -5.30355 11.759
LeftLeg  25.2308 -0.901046 -0.12406
LeftFoot  6.98881 2.88133 -17.9956
LeftToes  -3.91115e-011 -2.2622e-010 9.51032e-012
338
root  11.2405 36.9003 10.4137 -173.238 -30.5048 171.897
RightUpLeg  -4.16312 -7.51623 -25.9977
RightLeg  30.8948 -12.8624 -8.40749
RightFoot  -8.86774 -0.896245 37.377
RightToes  -5.8209e-011 0 -3.6325e-017
Spine  12.6505 2.90118 17.1606
Spine1  12.0161 4.99454 -0.0597163
HEad  -18.9379 -29.0557 -3.01158
LeftShoulder1  1.33227 -2.23748 -16.4804
LeftArm  10.5827 14.3322 -51.8613
LeftForeArm  58.9452 -78.7986 -80.6779
LeftHand  -1.5759 -0.759576 29.4054
RightShoulder  1.04746 1.27742 15.1774
RightArm  19.1336 2.56148 63.8076
RightForeArm  50.626 77.6567 101.905
RightHand  -1.00126 0.777427 -18.8622
LeftUpLeg  -26.7784 -6.93171 13.3001
LeftLeg  22.4279 -1.18579 -0.214853
LeftFoot  5.23983 2.66229 -18.3646
LeftToes  -3.91115e-011 -2.2622e-010 9.51032e-012
339
root  10.4174 37.2324 10.3577 -175.717 -27.5164 174.422
RightUpLeg  -1.59386 -5.83573 -24.8492
RightLeg  25.6477 -13.8938 -7.37819
RightFoot  -5.07558 -2.09618 36.3789
RightToes  -5.8209e-011 0 -3.6325e-017
Spine  13.0255 1.49771 17.8746
Spine1  13.477 4.23983 -1.75118
HEad  -18.8962 -25.6031 -2.10143
LeftShoulder1  1.28828 -2.13972 -16.0705
LeftArm  11.7223 11.9524 -52.7172
LeftForeArm  58.6803 -78.788 -80.0416
LeftHand  -1.44185 -0.399546 28.6017
RightShoulder  1.10677 1.58774 14.9814
RightArm  19.9747 -2.56648 63.5323
RightForeArm  64.7422 77.7183 106.227
RightHand  -1.08486 1.66179 -17.9214
LeftUpLeg  -23.6225 -10.1345 15.2237
LeftLeg  22.15 0.572345 0.594523
LeftFoot  2.0377 2.24597 -19.11
LeftToes  -3.91115e-011 -2.2622e-010 9.51032e-012
340
root  9.54221 37.4381 10.3695 -177.429 -22.9495 176.007
RightUpLeg  -0.850729 -2.34704 -24.4304
RightLeg  21.8341 -14.6347 -6.56107
RightFoot  -1.63831 -3.14701 35.7864
RightToes  -5.8209e-011 0 -3.6325e-017
Spine  13.7644 0.991366 16.9024
Spine1  14.6806 4.10609 -2.8496
HEad  -18.9065 -21.8392 -1.39488
LeftShoulder1  1.2776 -2.23396 -15.4587
LeftArm  13.3253 9.77904 -53.9357
LeftForeArm  56.4808 -78.7048 -76.2003
LeftHand  -1.29144 -0.146981 26.8621
RightShoulder  1.10825 1.64023 14.7673
RightArm  20.6859 -5.11632 62.7118
RightForeArm  76.0931 77.4718 112.181
RightHand  -1.00993 1.77754 -16.4334
LeftUpLeg  -20.4508 -10.0857 15.3989
LeftLeg  23.0466 3.76128 2.08721
LeftFoot  -0.979089 1.79741 -19.5806
LeftToes  -3.91115e-011 -2.2622e-010 9.51032e-012
